<?xml version="1.0" standalone="no"?>
<!DOCTYPE svg PUBLIC "-//W3C//DTD SVG 20010904//EN"
 "http://www.w3.org/TR/2001/REC-SVG-20010904/DTD/svg10.dtd">
<svg version="1.0" xmlns="http://www.w3.org/2000/svg"
 width="500.000000pt" height="500.000000pt" viewBox="0 0 500.000000 500.000000"
 preserveAspectRatio="xMidYMid meet">

<g transform="translate(0.000000,500.000000) scale(0.100000,-0.100000)"
fill="#000000" stroke="none">
<path d="M2065 4238 c-262 -29 -576 -115 -929 -254 l-149 -58 7 -216 c4 -118
11 -238 14 -266 l7 -51 135 63 c173 81 506 213 635 253 615 188 1240 210 1935
71 107 -22 206 -43 220 -46 37 -10 25 -2 -91 64 -429 243 -827 388 -1204 437
-131 17 -445 19 -580 3z"/>
<path d="M2735 3673 c-317 -21 -725 -104 -1059 -215 -153 -51 -438 -171 -561
-236 l-70 -37 3 -50 c4 -61 61 -357 72 -368 4 -5 52 21 106 56 358 231 752
426 1124 555 375 130 777 216 1105 238 154 10 169 19 55 32 -242 30 -554 40
-775 25z"/>
<path d="M3757 3473 c-13 -237 -54 -510 -108 -727 -167 -666 -505 -1217 -949
-1550 -53 -39 -116 -82 -141 -95 l-46 -24 -84 55 c-300 196 -580 517 -762 875
-29 57 -56 103 -60 103 -12 0 -197 -163 -197 -174 0 -27 173 -323 264 -451
194 -274 450 -515 709 -669 128 -76 131 -76 224 -26 160 87 298 193 462 353
535 524 879 1364 937 2292 l7 110 -84 17 c-46 9 -102 20 -125 23 l-41 6 -6
-118z"/>
<path d="M3185 3369 c-288 -36 -652 -125 -883 -214 -369 -143 -747 -351 -1044
-577 l-77 -58 33 -97 c44 -131 96 -263 103 -263 3 0 31 24 62 53 171 157 557
445 798 595 368 228 701 398 1023 523 132 51 130 56 -15 38z"/>
</g>
</svg>
